# xmcd
#
# Track frame offsets:
#	150
#	12412
#	33072
#	50077
#	69162
#	80679
#	104175
#	127465
#	147490
#	153784
#	174650
#	196375
#	216085
#	239422
#
# Disc length: 3471 seconds
#
# Revision: 0
# Processed by: cddbd v1.4PL0 Copyright (c) Steve Scherf et al.
# Submitted via: dBpowerAMP V4.0
#
DISCID=d00d8d0e
DTITLE=HIFI - Rien A Perdre, Rien A Prouver
DYEAR=2003
DGENRE=Rap
TTITLE0=Introduction - Paname Est Indecente
TTITLE1=Mon Son Est Ghetto
TTITLE2=Rien A Perdre, Rien A Prouver
TTITLE3=Tu Fais Quoi Se Soir ?
TTITLE4=Moi Et Mes Proches
TTITLE5=Drame Quotidien
TTITLE6=Mr l'Agent
TTITLE7=Rattes Ghettos
TTITLE8=J'aime Kicker Comme Ça Me Plait
TTITLE9=Je Suis
TTITLE10=Le Code De La Rue Feat Ali (Lunatic), Nasme
TTITLE11=Incontrolable
TTITLE12=Tout C'que Les Negros Veulent
TTITLE13=Rien À Perdre, Rien À Prouver Feat Dafariss
EXTD=Rien A perdre rien a prouver
EXTT0=
EXTT1=
EXTT2=
EXTT3=
EXTT4=
EXTT5=
EXTT6=
EXTT7=
EXTT8=
EXTT9=
EXTT10=
EXTT11=
EXTT12=
EXTT13=
PLAYORDER=
